<svg width="18" height="20" viewBox="0 0 18 20" fill="none" xmlns="http://www.w3.org/2000/svg">
<path fill-rule="evenodd" clip-rule="evenodd" d="M13.4183 0.603004C13.3725 0.262469 13.0828 0 12.7323 0C12.35 0 12.04 0.312359 12.04 0.697674V1.46875H5.96859V0.697674L5.96227 0.603004C5.91643 0.262469 5.62678 0 5.27629 0C4.89394 0 4.58398 0.312359 4.58398 0.697674V1.48604C1.74674 1.68127 0 3.51949 0 6.48552V14.9038C0 18.087 1.95834 19.9997 5.09625 19.9997H12.9036C16.0453 19.9997 17.9999 18.119 17.9999 14.9742V6.48552C18.009 3.5185 16.2679 1.6808 13.4246 1.48597V0.697674L13.4183 0.603004ZM12.04 2.8641V3.75887L12.0464 3.85354C12.0922 4.19407 12.3819 4.45654 12.7323 4.45654C13.1147 4.45654 13.4246 4.14418 13.4246 3.75887V2.8847C15.4934 3.05672 16.622 4.30237 16.6153 6.48338V6.8877H1.38461V6.48552C1.38461 4.30583 2.51942 3.05752 4.58398 2.88482V3.75887L4.5903 3.85354C4.63615 4.19407 4.9258 4.45654 5.27629 4.45654C5.65864 4.45654 5.96859 4.14418 5.96859 3.75887V2.8641H12.04ZM1.38461 8.28304V14.9038C1.38461 17.3064 2.71352 18.6044 5.09625 18.6044H12.9036C15.2946 18.6044 16.6153 17.3336 16.6153 14.9742L16.6153 8.28304H1.38461ZM13.8012 11.2183C13.8012 10.833 13.4912 10.5206 13.1089 10.5206L13.0064 10.527C12.6685 10.5732 12.408 10.8651 12.408 11.2183C12.408 11.6036 12.718 11.916 13.1089 11.916L13.2028 11.9096C13.5407 11.8634 13.8012 11.5715 13.8012 11.2183ZM9.01238 10.5205C9.39473 10.5205 9.70469 10.8329 9.70469 11.2182C9.70469 11.5714 9.44424 11.8633 9.10632 11.9095L9.01238 11.9159C8.62148 11.9159 8.31152 11.6035 8.31152 11.2182C8.31152 10.865 8.57197 10.5731 8.90989 10.5269L9.01238 10.5205ZM5.60043 11.2183C5.60043 10.833 5.29047 10.5206 4.90812 10.5206L4.80563 10.527C4.46772 10.5732 4.20727 10.8651 4.20727 11.2183C4.20727 11.6036 4.51722 11.916 4.89957 11.916L5.00207 11.9096C5.33998 11.8634 5.60043 11.5715 5.60043 11.2183ZM13.1091 14.1357C13.4914 14.1357 13.8014 14.4481 13.8014 14.8334C13.8014 15.1866 13.5409 15.4785 13.203 15.5247L13.1091 15.5311C12.7182 15.5311 12.4082 15.2187 12.4082 14.8334C12.4082 14.4802 12.6687 14.1883 13.0066 14.1421L13.1091 14.1357ZM9.70469 14.8334C9.70469 14.4481 9.39473 14.1357 9.01238 14.1357L8.90989 14.1421C8.57197 14.1883 8.31152 14.4802 8.31152 14.8334C8.31152 15.2187 8.62148 15.5311 9.01238 15.5311L9.10632 15.5247C9.44424 15.4785 9.70469 15.1866 9.70469 14.8334ZM4.90789 14.1357C5.29024 14.1357 5.60019 14.4481 5.60019 14.8334C5.60019 15.1866 5.33974 15.4785 5.00183 15.5247L4.89934 15.5311C4.51699 15.5311 4.20703 15.2187 4.20703 14.8334C4.20703 14.4802 4.46748 14.1883 4.80539 14.1421L4.90789 14.1357Z" fill="#4461A1"/>
</svg>
