<svg width="20" height="20" viewBox="0 0 20 20" fill="none" xmlns="http://www.w3.org/2000/svg">
<path fill-rule="evenodd" clip-rule="evenodd" d="M14.3588 0H5.6412C2.25586 0 0 2.4199 0 5.89317V14.1068C0 17.5833 2.24992 20 5.6412 20H14.3588C17.7501 20 20 17.5833 20 14.1068V5.89317C20 2.41665 17.7501 0 14.3588 0ZM5.6412 1.39535H14.3588C16.9563 1.39535 18.6047 3.16587 18.6047 5.89317V14.1068C18.6047 16.8341 16.9563 18.6047 14.3588 18.6047H5.6412C3.04372 18.6047 1.39535 16.8341 1.39535 14.1068V5.89317C1.39535 3.16949 3.04923 1.39535 5.6412 1.39535ZM10.7267 5.17893C10.6805 4.8384 10.3886 4.57593 10.0354 4.57593C9.65012 4.57593 9.33776 4.88829 9.33776 5.2736V14.7087L9.34413 14.8034C9.39033 15.1439 9.68223 15.4064 10.0354 15.4064C10.4208 15.4064 10.7331 15.094 10.7331 14.7087V5.2736L10.7267 5.17893ZM6.38605 8.23289C6.33985 7.89235 6.04795 7.62988 5.69474 7.62988C5.30943 7.62988 4.99707 7.94224 4.99707 8.32756V14.7091L5.00344 14.8037C5.04964 15.1443 5.34154 15.4068 5.69474 15.4068C6.08006 15.4068 6.39242 15.0944 6.39242 14.7091V8.32756L6.38605 8.23289ZM14.3061 11.002C14.6593 11.002 14.9512 11.2644 14.9974 11.605L15.0037 11.6996V14.7089C15.0037 15.0943 14.6914 15.4066 14.3061 15.4066C13.9529 15.4066 13.661 15.1441 13.6148 14.8036L13.6084 14.7089V11.6996C13.6084 11.3143 13.9208 11.002 14.3061 11.002Z" fill="#6F768C"/>
</svg>
