<svg width="24" height="24" viewBox="0 0 24 24" fill="none" xmlns="http://www.w3.org/2000/svg">
<path d="M16 2.75H8C5.10051 2.75 2.75 5.10051 2.75 8V16C2.75 18.8995 5.10051 21.25 8 21.25H16C18.8995 21.25 21.25 18.8995 21.25 16V8C21.25 5.10051 18.8995 2.75 16 2.75Z" stroke="#6F768C" stroke-width="1.5"/>
<path fill-rule="evenodd" clip-rule="evenodd" d="M9.54624 8.19013C9.16676 7.90851 8.6282 7.93974 8.284 8.28386C7.90539 8.6624 7.90532 9.27619 8.28386 9.65481L10.6981 12.0695L8.28686 14.4807L8.193 14.5895C7.91141 14.969 7.9427 15.5075 8.28686 15.8517C8.66544 16.2302 9.27923 16.2302 9.65781 15.8517L12.0689 13.4406L14.4829 15.8551L14.5916 15.949C14.9711 16.2306 15.5096 16.1994 15.8538 15.8553C16.2325 15.4767 16.2325 14.8629 15.854 14.4843L13.4398 12.0697L15.8517 9.65781L15.9455 9.54908C16.2271 9.16958 16.1958 8.63102 15.8517 8.28686C15.4731 7.90829 14.8593 7.90829 14.4807 8.28686L12.069 10.6986L9.65495 8.284L9.54624 8.19013Z" fill="#6F768C"/>
</svg>
