<svg width="9" height="9" viewBox="0 0 9 9" fill="none" xmlns="http://www.w3.org/2000/svg">
<path fill-rule="evenodd" clip-rule="evenodd" d="M1.54624 0.190131C1.16676 -0.0914949 0.628201 -0.0602637 0.284004 0.283861C-0.0946122 0.662399 -0.0946762 1.27619 0.283861 1.65481L2.69807 4.06952L0.286862 6.48072L0.193 6.58945C-0.0885858 6.96896 -0.0572985 7.50751 0.286862 7.85167C0.665439 8.23025 1.27923 8.23025 1.65781 7.85167L4.06887 5.44061L6.48289 7.85513L6.59161 7.94901C6.97109 8.23063 7.50964 8.1994 7.85384 7.85528C8.23246 7.47674 8.23252 6.86295 7.85398 6.48433L5.43982 4.06966L7.85167 1.65781L7.94553 1.54908C8.22712 1.16958 8.19583 0.631023 7.85167 0.286862C7.4731 -0.0917145 6.8593 -0.0917145 6.48072 0.286862L4.06902 2.69857L1.65495 0.284004L1.54624 0.190131Z" fill="#6F768C"/>
</svg>
