<svg width="48" height="48" viewBox="0 0 48 48" fill="none" xmlns="http://www.w3.org/2000/svg">
<path fill-rule="evenodd" clip-rule="evenodd" d="M24 7C14.6112 7 7 14.6112 7 24C7 33.3888 14.6112 41 24 41C33.3888 41 41 33.3888 41 24C41 14.6112 33.3888 7 24 7ZM4 24C4 12.9543 12.9543 4 24 4C35.0457 4 44 12.9543 44 24C44 35.0457 35.0457 44 24 44C12.9543 44 4 35.0457 4 24Z" fill="#6F768C"/>
<path d="M23.5195 14C24.2789 14 24.9065 14.5643 25.0058 15.2965L25.0195 15.5L25.0195 24.338C25.0195 25.1665 24.348 25.838 23.5195 25.838C22.7601 25.838 22.1325 25.2737 22.0332 24.5416L22.0195 24.338L22.0195 15.5C22.0195 14.6716 22.6911 14 23.5195 14Z" fill="#6F768C"/>
<path d="M23.52 29.8379C24.3484 29.8379 25.02 30.5095 25.02 31.3379C25.02 32.0973 24.4557 32.7249 23.7235 32.8242L23.5 32.8379C22.6716 32.8379 22 32.1663 22 31.3379C22 30.5785 22.5643 29.9509 23.2965 29.8516L23.52 29.8379Z" fill="#6F768C"/>
</svg>
