<svg width="24" height="24" viewBox="0 0 24 24" fill="none" xmlns="http://www.w3.org/2000/svg">
<path fill-rule="evenodd" clip-rule="evenodd" d="M12 3.5C7.30558 3.5 3.5 7.30558 3.5 12C3.5 16.6944 7.30558 20.5 12 20.5C16.6944 20.5 20.5 16.6944 20.5 12C20.5 7.30558 16.6944 3.5 12 3.5ZM2 12C2 6.47715 6.47715 2 12 2C17.5228 2 22 6.47715 22 12C22 17.5228 17.5228 22 12 22C6.47715 22 2 17.5228 2 12Z" fill="#6F768C"/>
<path d="M9.8453 6.9H9.84535L11.5629 6.90089C12.5303 6.9014 13.0811 6.90881 13.4674 6.95653C13.8613 7.0052 14.0865 7.09612 14.4025 7.257C14.9403 7.53085 15.5048 8.11826 15.7674 8.67599L15.7674 8.67599C16.352 9.91753 16.156 11.3308 15.2575 12.3185C15.2575 12.3185 15.2575 12.3185 15.2575 12.3185L15.1836 12.2512C14.8323 12.6373 14.4742 12.8831 13.9686 13.085L9.8453 6.9ZM9.8453 6.9C9.6543 6.9 9.49946 7.05484 9.49946 7.24585V7.25565V9.83593V12.3162M9.8453 6.9L9.49946 12.3162M9.49946 12.3162H8.92111C8.5989 12.3162 8.41781 12.317 8.30404 12.3351C8.24376 12.3448 8.19537 12.3601 8.15164 12.3863L9.49946 12.3162ZM8.04503 13.1782L8.04501 13.1781C7.95136 13.0731 7.89997 12.9497 7.9 12.8229C7.90003 12.6957 7.95187 12.5744 8.04772 12.4747C8.04773 12.4747 8.04774 12.4747 8.04775 12.4747L8.04503 13.1782ZM8.04503 13.1782L8.04556 13.1788M8.04503 13.1782L8.04556 13.1788M13.7698 7.97637L13.7335 8.06956C13.4863 7.97338 13.3794 7.96268 11.9395 7.94517L10.5007 7.92771V10.1253V12.3229L11.9395 12.3053C12.6731 12.2964 13.0577 12.2902 13.2934 12.2724C13.5222 12.2552 13.6028 12.2278 13.7299 12.1752L13.73 12.1752C14.2858 11.9452 14.7554 11.4563 14.9691 10.8834L14.9691 10.8834C15.0434 10.6845 15.0828 10.4053 15.0831 10.1213C15.0833 9.8372 15.0445 9.56051 14.971 9.3663L13.7698 7.97637ZM13.7698 7.97637L13.7335 8.06956C14.2804 8.28234 14.7427 8.76366 14.971 9.36629L13.7698 7.97637ZM8.04556 13.1788C8.07438 13.2111 8.10558 13.2461 8.14582 13.2733M8.04556 13.1788L8.14582 13.2733M8.14582 13.2733C8.18921 13.3027 8.2373 13.3196 8.29779 13.33M8.14582 13.2733L8.29779 13.33M8.29779 13.33C8.41008 13.3494 8.59177 13.3494 8.92096 13.3494M8.29779 13.33L8.92096 13.3494M8.92096 13.3494H9.49946M8.92096 13.3494H9.49946M9.49946 13.3494V13.666V13.9827V13.3494ZM13.1544 14.1412L13.0823 14.2105L8.04775 14.1412C8.04774 14.1412 8.04773 14.1412 8.04772 14.1412C7.95187 14.2409 7.90003 14.3622 7.9 14.4894C7.89997 14.6162 7.95136 14.7396 8.04501 14.8447L8.04503 14.8447L8.04556 14.8453C8.07438 14.8776 8.10558 14.9126 8.14582 14.9398C8.18921 14.9692 8.2373 14.9861 8.29779 14.9965C8.41008 15.0159 8.59177 15.0159 8.92096 15.0159H9.49946V15.8197C9.49946 16.2595 9.49983 16.4941 9.51634 16.6342C9.52486 16.7065 9.53842 16.7617 9.56259 16.8106C9.58644 16.8588 9.61781 16.8944 9.6476 16.9278C9.74534 17.0375 9.86879 17.1 10.0001 17.1C10.1314 17.1 10.2549 17.0375 10.3526 16.9278C10.3824 16.8944 10.4138 16.8588 10.4376 16.8106C10.4618 16.7617 10.4753 16.7065 10.4839 16.6342C10.5004 16.4941 10.5007 16.2595 10.5007 15.8197V15.0159H11.6802H12.775C12.921 15.0159 13.06 14.9536 13.1571 14.8447L13.1571 14.8447C13.2508 14.7396 13.3022 14.6162 13.3021 14.4894C13.3021 14.3622 13.2503 14.2409 13.1544 14.1412C13.1544 14.1412 13.1544 14.1412 13.1544 14.1412Z" fill="#6F768C" stroke="#6F768C" stroke-width="0.2"/>
</svg>
