<svg width="20" height="20" viewBox="0 0 20 20" fill="none" xmlns="http://www.w3.org/2000/svg">
<path fill-rule="evenodd" clip-rule="evenodd" d="M11.423 0.00105033C11.0474 -0.0133911 10.6739 0.121564 10.3925 0.376428C10.1684 0.579378 10.0162 0.84619 9.95698 1.13824L9.9349 1.30295L9.92986 1.44914L10.3741 7.97348C10.4295 8.80509 11.1615 9.43818 12.0133 9.39005L18.6588 8.95674C19.0477 8.92862 19.4041 8.75241 19.6545 8.46677C19.8538 8.23931 19.9737 7.95621 19.9977 7.65855L20 7.4567L19.9904 7.34084C19.3029 3.20162 15.7085 0.122269 11.423 0.00105033ZM11.4113 1.44902L11.6287 1.45932C15.0119 1.66443 17.8318 4.0802 18.4854 7.33352L18.5182 7.51352L11.9214 7.94502C11.888 7.94688 11.8537 7.91719 11.8511 7.87814L11.4113 1.44902ZM6.7814 3.84561C7.502 3.7471 8.21097 4.12483 8.49776 4.76089C8.58545 4.93514 8.63817 5.12422 8.65332 5.32132L9.04185 10.8098C9.04706 10.885 9.08269 10.9551 9.14085 11.0045C9.18448 11.0416 9.23808 11.0648 9.29801 11.0715L9.35991 11.0727L14.9341 10.7369C15.3867 10.7103 15.8305 10.8678 16.1604 11.1722C16.4902 11.4766 16.6768 11.9007 16.6744 12.3915C16.4265 16.004 13.773 19.024 10.159 19.8068C6.54503 20.5896 2.83611 18.9477 1.05781 15.7851C0.582292 14.9698 0.261779 14.0781 0.113798 13.1752L0.0664268 12.8362C0.0253023 12.5823 0.00319023 12.326 0 12.0798L0.00311369 11.8375C0.0133983 8.06575 2.66156 4.80432 6.38809 3.92463L6.64383 3.86837L6.7814 3.84561ZM7.01679 5.27832L6.93253 5.28791L6.70405 5.33952C3.73563 6.05496 1.60657 8.61049 1.48832 11.6212L1.48317 11.8663C1.47605 12.0527 1.48286 12.2394 1.50535 12.4379L1.53313 12.641C1.63248 13.4952 1.90831 14.3208 2.34951 15.0774C3.81669 17.6865 6.86705 19.0369 9.83937 18.3931C12.8117 17.7493 14.994 15.2655 15.1962 12.3416C15.1963 12.2975 15.1777 12.2554 15.145 12.2252C15.1232 12.2051 15.0963 12.1914 15.0678 12.1853L15.0243 12.1819L9.4594 12.5171C8.98974 12.5505 8.52585 12.3994 8.17039 12.0973C7.81493 11.7952 7.5972 11.367 7.56558 10.9102L7.17739 5.42635C7.17669 5.41727 7.17422 5.40841 7.15719 5.37317C7.13186 5.31714 7.07684 5.2815 7.01679 5.27832Z" fill="#6F768C"/>
</svg>
