<svg width="24" height="21" viewBox="0 0 24 21" fill="none" xmlns="http://www.w3.org/2000/svg">
<path fill-rule="evenodd" clip-rule="evenodd" d="M6.53948 2C5.53362 2 4.58629 2.20612 3.9818 3.01008L1.49285 6.32035C1.31583 6.55578 0.981481 6.60313 0.746053 6.42612C0.510625 6.2491 0.463272 5.91475 0.640287 5.67932L3.12924 2.36905C3.93522 1.2971 5.15885 1 6.5 1H17.4208C18.762 1 20.0646 1.2971 20.8706 2.36905L23.3595 5.67932C23.5365 5.91475 23.4892 6.2491 23.2537 6.42612C23.0183 6.60313 22.684 6.55578 22.507 6.32035L20.018 3.01008C19.4135 2.20612 18.4662 2 17.4603 2H6.53948ZM3.67563 6.4665C3.97018 6.4665 4.20896 6.70529 4.20896 6.99984V16.5998C4.20896 18.3671 5.55082 19.5 7.31813 19.5H16.5C18.2673 19.5 19.7908 18.3671 19.7908 16.5998V6.99984C19.7908 6.70529 20.0296 6.4665 20.3242 6.4665C20.6187 6.4665 20.8575 6.70529 20.8575 6.99984V16.5998C20.8575 18.9563 18.8564 20.5667 16.5 20.5667H7.31813C4.96171 20.5667 3.1423 18.9563 3.1423 16.5998V6.99984C3.1423 6.70529 3.38108 6.4665 3.67563 6.4665Z" fill="#6F768C"/>
<path fill-rule="evenodd" clip-rule="evenodd" d="M2.92943 2.21881C3.8054 1.05379 5.12802 0.75 6.50001 0.75H17.4209C18.7879 0.75 20.1926 1.0514 21.0704 2.21881L23.5593 5.52908C23.8193 5.87487 23.7498 6.36595 23.404 6.62594C23.0582 6.88593 22.5671 6.81638 22.3071 6.47059L19.8182 3.16032C19.286 2.45253 18.4418 2.25 17.4603 2.25H6.53949C5.55806 2.25 4.71381 2.45253 4.18163 3.16032L1.69268 6.47059C1.43269 6.81638 0.941611 6.88593 0.595826 6.62594L0.746067 6.42612L0.595826 6.62594C0.250041 6.36594 0.180491 5.87487 0.440483 5.52908L2.92943 2.21881ZM6.50001 1.25C5.1897 1.25 4.06508 1.54042 3.32907 2.51929L0.840121 5.82956C0.746081 5.95464 0.771237 6.13226 0.896308 6.2263C1.02138 6.32034 1.199 6.29518 1.29304 6.17011L3.78199 2.85984C4.45879 1.95971 5.5092 1.75 6.53949 1.75H17.4603C18.4906 1.75 19.541 1.95971 20.2178 2.85984L22.7068 6.17011C22.8008 6.29518 22.9784 6.32034 23.1035 6.2263C23.2286 6.13226 23.2537 5.95463 23.1597 5.82956L20.6708 2.51929C19.9366 1.54281 18.7361 1.25 17.4209 1.25H6.50001ZM2.89231 6.99984C2.89231 6.56721 3.24302 6.2165 3.67564 6.2165C4.10827 6.2165 4.45898 6.56721 4.45898 6.99984V16.5998C4.45898 17.4163 4.76705 18.0729 5.26868 18.5274C5.77273 18.9841 6.48741 19.25 7.31814 19.25H16.5C18.1726 19.25 19.5409 18.1894 19.5409 16.5998V6.99984C19.5409 6.56721 19.8916 6.2165 20.3242 6.2165C20.7568 6.2165 21.1075 6.56721 21.1075 6.99984V16.5998C21.1075 19.1241 18.9627 20.8167 16.5 20.8167H7.31814C4.84098 20.8167 2.89231 19.111 2.89231 16.5998V6.99984ZM3.67564 6.7165C3.51916 6.7165 3.39231 6.84336 3.39231 6.99984V16.5998C3.39231 18.8015 5.08247 20.3167 7.31814 20.3167H16.5C18.7502 20.3167 20.6075 18.7884 20.6075 16.5998V6.99984C20.6075 6.84336 20.4807 6.7165 20.3242 6.7165C20.1677 6.7165 20.0409 6.84336 20.0409 6.99984V16.5998C20.0409 18.5449 18.3621 19.75 16.5 19.75H7.31814C6.38156 19.75 5.54165 19.4495 4.93295 18.8979C4.32183 18.3442 3.95898 17.5507 3.95898 16.5998V6.99984C3.95898 6.84336 3.83212 6.7165 3.67564 6.7165Z" fill="#6F768C"/>
<path fill-rule="evenodd" clip-rule="evenodd" d="M18.9435 2.00019H19C19.2959 2.00032 19.5001 1.67442 19.5 2.00031C19.4999 2.28947 20 2.5 19.5617 3.17081L17.917 6.25352C17.3397 7.33564 16.2854 8.00019 15.1458 8.00019H8.4715C7.25745 8.00019 6.14699 7.24674 5.60084 6.05246L5.05738 4.86405C4.92429 4.57301 5.0306 4.21822 5.29483 4.07162C5.55907 3.92502 5.88117 4.04212 6.01427 4.33317L6.55773 5.52157C6.92182 6.31776 7.66213 6.82006 8.4715 6.82006H15.1458C15.9055 6.82006 16.6084 6.37703 16.9933 5.65561L18.9435 2.00019Z" fill="#6F768C"/>
<path fill-rule="evenodd" clip-rule="evenodd" d="M19.7313 1.84015C19.7462 1.89382 19.7497 1.95005 19.7497 2.00035C19.7497 2.00244 19.7505 2.02035 19.7886 2.08789C19.7947 2.09869 19.8023 2.11159 19.8109 2.1262C19.8441 2.18245 19.8922 2.26401 19.9264 2.34819C19.9743 2.46578 20.0058 2.6073 19.9847 2.7764C19.9644 2.93951 19.8974 3.1112 19.7769 3.2979L18.1373 6.37114C17.5206 7.52701 16.3858 8.25014 15.1455 8.25014H8.47117C7.14951 8.25014 5.95576 7.43037 5.37316 6.15637L4.8297 4.96797C4.6474 4.56932 4.78444 4.06866 5.17322 3.85296C5.57799 3.62839 6.05402 3.81962 6.2413 4.22914L6.78476 5.41755C7.1124 6.13403 7.76942 6.57 8.47117 6.57H15.1455C15.8045 6.57 16.4269 6.18555 16.7724 5.53788L18.7932 1.75014H18.9997C19.0279 1.75015 19.0618 1.74234 19.1061 1.72379C19.128 1.71459 19.1502 1.70382 19.1751 1.69122C19.1797 1.68891 19.1847 1.68636 19.19 1.68365C19.2099 1.67348 19.2341 1.66111 19.2557 1.65114C19.282 1.63897 19.3249 1.62032 19.374 1.61123C19.425 1.60177 19.5127 1.59735 19.5984 1.6525C19.6823 1.70642 19.7166 1.7868 19.7313 1.84015ZM19.097 2.24302C19.1688 2.23256 19.2324 2.21199 19.2851 2.19078C19.3058 2.24785 19.332 2.29622 19.3532 2.33372C19.3679 2.35981 19.3811 2.38228 19.3931 2.40267C19.4222 2.45217 19.4441 2.48944 19.4633 2.53659C19.4857 2.59163 19.497 2.64659 19.4885 2.71467C19.4797 2.78594 19.4468 2.88903 19.3521 3.03402L19.346 3.0433L17.6961 6.13579C17.1581 7.14416 16.1843 7.75014 15.1455 7.75014H8.47117C7.36474 7.75014 6.33756 7.06301 5.82787 5.94844L5.28441 4.76003C5.20053 4.57659 5.27611 4.36768 5.4158 4.29018C5.5395 4.22154 5.70767 4.26451 5.78659 4.43708L6.33005 5.62549C6.7306 6.50139 7.55419 7.07 8.47117 7.07H15.1455C16.0059 7.07 16.7893 6.5684 17.2135 5.77324L19.097 2.24302Z" fill="#6F768C"/>
</svg>
