<svg width="20" height="20" viewBox="0 0 20 20" fill="none" xmlns="http://www.w3.org/2000/svg">
<path fill-rule="evenodd" clip-rule="evenodd" d="M0 10.0002C0 4.47798 4.47779 0.000198364 10 0.000198364C15.5229 0.000198364 20 4.47765 20 10.0002C20 15.5227 15.5229 20.0002 10 20.0002C4.47779 20.0002 0 15.5224 0 10.0002ZM18.5 10.0002C18.5 5.30605 14.6944 1.5002 10 1.5002C5.30621 1.5002 1.5 5.30641 1.5 10.0002C1.5 14.694 5.30621 18.5002 10 18.5002C14.6944 18.5002 18.5 14.6943 18.5 10.0002ZM9.99512 14.8733C9.61542 14.8733 9.30163 14.5912 9.25196 14.2251L9.24512 14.1233V9.70431C9.24512 9.29009 9.5809 8.95431 9.99512 8.95431C10.3748 8.95431 10.6886 9.23646 10.7383 9.60254L10.7451 9.70431V14.1233C10.7451 14.5375 10.4093 14.8733 9.99512 14.8733ZM9.24488 6.2043C9.24488 6.61851 9.58067 6.9543 9.99488 6.9543L10.1067 6.94745C10.4727 6.89779 10.7549 6.584 10.7549 6.2043C10.7549 5.79009 10.4191 5.4543 10.0049 5.4543L9.89311 5.46115C9.52704 5.51081 9.24488 5.8246 9.24488 6.2043Z" fill="#6F768C"/>
</svg>
