<svg width="18" height="17" viewBox="0 0 18 17" fill="none" xmlns="http://www.w3.org/2000/svg">
<path fill-rule="evenodd" clip-rule="evenodd" d="M0.968667 10.4157L10.6592 0.916618C11.906 -0.305539 13.9283 -0.305539 15.175 0.916618L16.4694 2.1854C17.7162 3.40755 17.7162 5.38985 16.4694 6.612L6.74061 16.1486C6.1843 16.6939 5.43007 16.9999 4.64282 16.9999H0.658541C0.288415 16.9999 -0.00901523 16.701 0.000208899 16.3383L0.100432 12.3975C0.120357 11.6526 0.43127 10.9425 0.968667 10.4157ZM15.5376 3.09827L14.2433 1.82949C13.5108 1.11152 12.3225 1.11152 11.5901 1.82949L10.8381 2.56668L14.786 6.43582L15.5376 5.69905C16.2701 4.98108 16.2701 3.81624 15.5376 3.09827ZM1.89954 11.3286L9.90674 3.47959L13.8547 7.34874L5.80885 15.2356L5.70184 15.3317C5.40626 15.5744 5.03178 15.7088 4.64237 15.7088L1.33301 15.7083L1.41663 12.4304C1.4277 12.0168 1.60082 11.6214 1.89954 11.3286ZM18 16.3545C18 15.998 17.7052 15.7089 17.3415 15.7089H10.471L10.3816 15.7148C10.0602 15.7576 9.81246 16.0277 9.81246 16.3545C9.81246 16.711 10.1073 17 10.471 17H17.3415L17.4308 16.9941C17.7523 16.9514 18 16.6813 18 16.3545Z" fill="#6F768C"/>
</svg>
